<mxfile host="app.diagrams.net" modified="2023-06-27T10:41:57.553Z" agent="Mozilla/5.0 (Windows NT 10.0; Win64; x64) AppleWebKit/537.36 (KHTML, like Gecko) Chrome/114.0.0.0 Safari/537.36 Edg/114.0.1823.58" etag="ogldl14ts00Qg3EDR5eF" version="21.5.0" type="device">
  <diagram name="Página-1" id="iupwQkOxajCG59sELQmJ">
    <mxGraphModel dx="1050" dy="611" grid="1" gridSize="10" guides="1" tooltips="1" connect="1" arrows="1" fold="1" page="1" pageScale="1" pageWidth="827" pageHeight="1169" math="0" shadow="0">
      <root>
        <mxCell id="0" />
        <mxCell id="1" parent="0" />
        <mxCell id="jsxhnMMjvjiSX0HjkTjO-8" style="edgeStyle=orthogonalEdgeStyle;rounded=0;orthogonalLoop=1;jettySize=auto;html=1;entryX=0.021;entryY=0.68;entryDx=0;entryDy=0;entryPerimeter=0;" parent="1" source="jsxhnMMjvjiSX0HjkTjO-1" target="jsxhnMMjvjiSX0HjkTjO-6" edge="1">
          <mxGeometry relative="1" as="geometry" />
        </mxCell>
        <mxCell id="jsxhnMMjvjiSX0HjkTjO-1" value="ADMIN" style="shape=umlActor;verticalLabelPosition=bottom;verticalAlign=top;html=1;outlineConnect=0;" parent="1" vertex="1">
          <mxGeometry x="120" y="270" width="30" height="60" as="geometry" />
        </mxCell>
        <mxCell id="jsxhnMMjvjiSX0HjkTjO-2" value="&lt;font style=&quot;font-size: 24px;&quot;&gt;DIAGRAMA DE CASOS DE USO&lt;/font&gt;" style="text;html=1;strokeColor=none;fillColor=none;align=center;verticalAlign=middle;whiteSpace=wrap;rounded=0;" parent="1" vertex="1">
          <mxGeometry x="270" y="50" width="210" height="50" as="geometry" />
        </mxCell>
        <mxCell id="jsxhnMMjvjiSX0HjkTjO-6" value="&lt;font style=&quot;font-size: 24px;&quot;&gt;A/B/M/C&lt;/font&gt;" style="ellipse;whiteSpace=wrap;html=1;fillColor=#f8cecc;strokeColor=#b85450;" parent="1" vertex="1">
          <mxGeometry x="250" y="170" width="150" height="100" as="geometry" />
        </mxCell>
        <mxCell id="jsxhnMMjvjiSX0HjkTjO-7" value="&lt;font style=&quot;font-size: 24px;&quot;&gt;BÚSQUEDAS&lt;/font&gt;" style="ellipse;whiteSpace=wrap;html=1;" parent="1" vertex="1">
          <mxGeometry x="230" y="310" width="160" height="100" as="geometry" />
        </mxCell>
        <mxCell id="jsxhnMMjvjiSX0HjkTjO-9" style="edgeStyle=orthogonalEdgeStyle;rounded=0;orthogonalLoop=1;jettySize=auto;html=1;" parent="1" source="jsxhnMMjvjiSX0HjkTjO-10" target="jsxhnMMjvjiSX0HjkTjO-7" edge="1">
          <mxGeometry relative="1" as="geometry">
            <mxPoint x="233" y="390" as="targetPoint" />
          </mxGeometry>
        </mxCell>
        <mxCell id="jsxhnMMjvjiSX0HjkTjO-10" value="USUARIO" style="shape=umlActor;verticalLabelPosition=bottom;verticalAlign=top;html=1;outlineConnect=0;" parent="1" vertex="1">
          <mxGeometry x="100" y="422" width="30" height="60" as="geometry" />
        </mxCell>
      </root>
    </mxGraphModel>
  </diagram>
</mxfile>
